<svg width="131" height="127" viewBox="0 0 131 127" fill="none" xmlns="http://www.w3.org/2000/svg">
<g>
<path d="M128.27 2.00217L2.00195 1.99951L2.00103 46.0209L2.00022 84.2438L1.99929 128.267L128.267 128.27L128.268 84.2465L128.269 46.0236L128.27 2.00217Z" fill="black"/>
<path d="M128.27 2.00217L2.00195 1.99951L2.00103 46.0209L2.00022 84.2438L1.99929 128.267L128.267 128.27L128.268 84.2465L128.269 46.0236L128.27 2.00217Z" fill="url(#paint0_radial_3061_7112)"/>
<path d="M91.7543 66.1683C89.1632 61.5762 85.5971 57.8995 81.1538 55.2381C76.6978 52.5745 71.596 51.2236 65.9909 51.2235C61.1036 51.2234 56.6093 52.281 52.6353 54.3624C49.3558 56.0743 46.5798 58.2746 44.3517 60.9232L44.3523 31.6188C44.3523 30.1384 43.8999 28.9341 43.01 28.042C42.1201 27.1499 40.9519 26.6996 39.5395 26.6996C38.127 26.6995 36.8548 27.1519 35.9606 28.0418C35.0727 28.9318 34.6224 30.1339 34.6224 31.6186L34.6214 78.0167C34.5789 78.2779 34.5555 78.5455 34.5555 78.8195L34.5545 128.266L44.4182 128.266L44.4187 104.624C45.9904 106.053 47.7214 107.317 49.6096 108.405C54.1634 111.028 59.3501 112.358 65.0253 112.358C70.7006 112.358 76.1273 111.009 80.713 108.35C85.303 105.689 88.9797 102.012 91.639 97.4246C94.3004 92.8326 95.6492 87.5546 95.6494 81.737C95.6495 75.9195 94.3391 70.7582 91.7543 66.164L91.7543 66.1683ZM83.2813 92.4671C81.4588 95.6933 78.9355 98.2866 75.7814 100.173C72.6336 102.057 69.0143 103.01 65.0234 103.01C61.0324 103.01 57.5237 102.056 54.3781 100.172C51.2198 98.2839 48.7136 95.6926 46.9338 92.4705C45.6021 90.0683 44.761 87.3836 44.417 84.4631L44.4171 78.4523C44.4171 78.4162 44.4171 78.3801 44.415 78.3419C44.757 75.4426 45.6003 72.7558 46.9363 70.3175C48.7184 67.0594 51.2205 64.4746 54.3725 62.6268C57.5245 60.7769 61.1098 59.8361 65.0243 59.8361C68.9388 59.8362 72.6323 60.7772 75.7864 62.6294C78.9341 64.4709 81.4531 67.0622 83.2796 70.3247C85.0998 73.5893 86.0215 77.3062 86.0214 81.3715C86.0213 85.4368 85.0994 89.2387 83.2791 92.4671L83.2813 92.4671Z" fill="url(#paint1_linear_3061_7112)"/>
<path d="M81.1524 48.6221C76.6964 45.9586 71.5946 44.6076 65.9895 44.6075C61.1022 44.6074 56.6079 45.6651 52.6339 47.7465C49.3545 49.4583 46.5784 51.6587 44.3503 54.3072L44.3509 25.0028C44.3509 23.5224 43.8985 22.3181 43.0086 21.426C42.1187 20.5339 40.9505 20.0836 39.5381 20.0836C38.1256 20.0836 36.8534 20.5359 35.9592 21.4259C35.0713 22.3158 34.621 23.518 34.621 25.0026L34.6199 75.5616C34.692 81.2368 36.0746 86.4236 38.7337 90.9732C41.395 95.527 45.0545 99.1676 49.6082 101.791C54.162 104.414 59.3487 105.744 65.0239 105.744C70.6992 105.744 76.1259 104.395 80.7116 101.736C85.3016 99.075 88.9783 95.3985 91.6376 90.8108C94.299 86.2188 95.6478 80.9408 95.648 75.1232C95.6481 69.3057 94.3377 64.1444 91.7529 59.5502C89.1618 54.9581 85.5957 51.2814 81.1524 48.62M86.0243 75.123C86.0242 79.2562 85.1023 82.9902 83.282 86.2186C81.4595 89.4448 78.9362 92.0382 75.7821 93.9242C72.6343 95.8081 69.0151 96.7617 65.0241 96.7616C61.0332 96.7615 57.5244 95.8077 54.3788 93.9237C51.2205 92.0354 48.7143 89.4441 46.9345 86.222C45.1462 82.9936 44.2393 79.2596 44.2394 75.1221C44.2395 70.9846 45.1465 67.3357 46.9371 64.0712C48.7192 60.813 51.2212 58.2282 54.3733 56.3804C57.5253 54.5305 61.1105 53.5897 65.025 53.5898C68.9395 53.5898 72.6331 54.5308 75.7871 56.383C78.9348 58.2246 81.4538 60.8158 83.2803 64.0783C85.1005 67.3429 86.0222 71.0599 86.0221 75.1251" fill="white"/>
<path d="M52.5334 72.4076L56.1101 72.4077C57.8199 72.4077 58.7714 73.5802 58.7714 74.9587C58.7714 76.3371 57.8071 77.5095 56.11 77.5095L53.9606 77.5094L53.9605 80.5488L52.5311 80.5488L52.5312 72.4055L52.5334 72.4076ZM55.9147 73.6651L53.9607 73.6651L53.9606 76.2542L55.9147 76.2542C56.7196 76.2542 57.3059 75.7424 57.3059 74.9608C57.3059 74.1791 56.7197 73.6672 55.9147 73.6672L55.9147 73.6651Z" fill="white"/>
<path d="M64.9716 72.2743C67.4141 72.2743 69.1345 74.0564 69.1345 76.4862C69.1344 78.916 67.414 80.698 64.9714 80.6979C62.5288 80.6979 60.8085 78.9158 60.8085 76.486C60.8086 74.0562 62.529 72.2742 64.9716 72.2743ZM64.9715 73.5444C63.3233 73.5444 62.2741 74.8017 62.274 76.486C62.274 78.1703 63.3232 79.4278 64.9714 79.4278C66.6196 79.4278 67.6689 78.1577 67.6689 76.4862C67.669 74.8146 66.607 73.5444 64.9715 73.5444Z" fill="white"/>
<path d="M72.0052 78.3043C72.5659 78.9032 73.4452 79.4279 74.5815 79.4279C75.7179 79.4279 76.217 78.8545 76.217 78.3171C76.217 77.5843 75.3504 77.3655 74.3607 77.1085C73.029 76.7793 71.4678 76.3884 71.4679 74.6659C71.4679 73.3235 72.6531 72.2849 74.4351 72.285C75.7053 72.285 76.7311 72.6886 77.4872 73.4214L76.6695 74.4833C76.0344 73.8483 75.1679 73.5551 74.314 73.5551C73.4602 73.5551 72.9334 73.9586 72.9334 74.5682C72.9334 75.1778 73.7639 75.4114 74.7282 75.6557C76.0705 75.9977 77.6698 76.4119 77.6698 78.1833C77.6698 79.5384 76.7182 80.6981 74.5199 80.698C73.0183 80.698 71.9308 80.1734 71.2108 79.4045L72.0052 78.3064L72.0052 78.3043Z" fill="white"/>
</g>
<defs>
<radialGradient id="paint0_radial_3061_7112" cx="0" cy="0" r="1" gradientUnits="userSpaceOnUse" gradientTransform="translate(65.8132 65.7993) scale(63.2093 56.8884)">
<stop stop-color="#00CAFF" stop-opacity="0.3"/>
<stop offset="0.34" stop-color="#00CAFF" stop-opacity="0.29"/>
<stop offset="0.75" stop-color="#00CAFF" stop-opacity="0.1"/>
<stop offset="1" stop-color="#00CAFF" stop-opacity="0"/>
</radialGradient>
<linearGradient id="paint1_linear_3061_7112" x1="65.1014" y1="128.268" x2="65.1036" y2="26.7001" gradientUnits="userSpaceOnUse">
<stop stop-color="#00CAFF" stop-opacity="0.2"/>
<stop offset="0.08" stop-color="#00CAFF" stop-opacity="0.22"/>
<stop offset="0.16" stop-color="#00CAFF" stop-opacity="0.26"/>
<stop offset="0.24" stop-color="#00CAFF" stop-opacity="0.34"/>
<stop offset="0.32" stop-color="#00CAFF" stop-opacity="0.45"/>
<stop offset="0.35" stop-color="#00CAFF" stop-opacity="0.5"/>
<stop offset="1" stop-color="#00CAFF" stop-opacity="0.5"/>
</linearGradient>
</defs>
</svg>
