<svg width="126.268" height="126.268" overflow="visible" style="display: block;" viewBox="0 0 126.268 126.268" fill="none" xmlns="http://www.w3.org/2000/svg">
<g id="Group">
<path id="Vector" d="M126.268 0H0V44.0214V82.2443V126.268H126.268V82.2443V44.0214V0Z" fill="var(--fill-0, black)"/>
<path id="Vector_2" d="M126.268 0H0V44.0214V82.2443V126.268H126.268V82.2443V44.0214V0Z" fill="url(#paint0_radial_0_4)"/>
<path id="p" d="M89.7528 64.167C87.1615 59.5749 83.5954 55.8984 79.152 53.237C74.6959 50.5736 69.5942 49.2227 63.989 49.2227C59.1017 49.2227 54.6074 50.2805 50.6335 52.362C47.3541 54.0739 44.578 56.2743 42.35 58.9229V29.6185C42.35 28.1381 41.8976 26.9338 41.0076 26.0417C40.1177 25.1497 38.9495 24.6994 37.5371 24.6994C36.1246 24.6994 34.8524 25.1518 33.9582 26.0417C33.0704 26.9317 32.6201 28.1338 32.6201 29.6185V76.0166C32.5776 76.2778 32.5542 76.5455 32.5542 76.8195V126.265H42.418V102.624C43.9897 104.053 45.7207 105.317 47.6089 106.404C52.1627 109.027 57.3495 110.357 63.0247 110.357C68.7 110.357 74.1267 109.008 78.7124 106.349C83.3023 103.688 86.9789 100.011 89.6381 95.4233C92.2994 90.8313 93.6481 85.5532 93.6481 79.7357C93.6481 73.9181 92.3376 68.7569 89.7528 64.1627V64.167ZM81.2802 90.466C79.4579 93.6923 76.9346 96.2856 73.7805 98.1717C70.6328 100.056 67.0135 101.009 63.0226 101.009C59.0317 101.009 55.5229 100.056 52.3773 98.1717C49.2189 96.2835 46.7126 93.6923 44.9327 90.4702C43.601 88.068 42.7599 85.3833 42.4158 82.4628V76.452C42.4158 76.4159 42.4158 76.3798 42.4137 76.3416C42.7557 73.4423 43.5989 70.7555 44.9349 68.3172C46.7169 65.059 49.2189 62.4742 52.3709 60.6263C55.5229 58.7763 59.1081 57.8354 63.0226 57.8354C66.9371 57.8354 70.6307 58.7763 73.7848 60.6284C76.9325 62.4699 79.4515 65.0612 81.2781 68.3236C83.0984 71.5881 84.0202 75.3051 84.0202 79.3703C84.0202 83.4356 83.0984 87.2375 81.2781 90.466H81.2802Z" fill="url(#paint1_linear_0_4)"/>
<path id="b" d="M79.152 46.6208C74.6959 43.9574 69.5941 42.6065 63.989 42.6065C59.1017 42.6065 54.6074 43.6643 50.6335 45.7458C47.3541 47.4577 44.578 49.6581 42.35 52.3067V23.0023C42.35 21.5219 41.8976 20.3176 41.0076 19.4255C40.1177 18.5335 38.9495 18.0832 37.5371 18.0832C36.1246 18.0832 34.8524 18.5356 33.9582 19.4255C33.0704 20.3155 32.6201 21.5176 32.6201 23.0023V73.5613C32.6923 79.2365 34.075 84.4233 36.7342 88.9728C39.3955 93.5266 43.0551 97.1671 47.6089 99.7902C52.1627 102.413 57.3495 103.743 63.0247 103.743C68.7 103.743 74.1267 102.394 78.7124 99.7349C83.3023 97.0736 86.9788 93.397 89.6381 88.8092C92.2994 84.2172 93.6481 78.9392 93.6481 73.1216C93.6481 67.3041 92.3376 62.1428 89.7527 57.5487C87.1615 52.9566 83.5954 49.2801 79.152 46.6187M84.0244 73.1216C84.0244 77.2549 83.1026 80.9888 81.2824 84.2172C79.46 87.4435 76.9367 90.0369 73.7826 91.923C70.6349 93.807 67.0157 94.7606 63.0247 94.7606C59.0338 94.7606 55.525 93.807 52.3794 91.923C49.221 90.0348 46.7147 87.4435 44.9349 84.2215C43.1465 80.993 42.2395 77.2591 42.2395 73.1216C42.2395 68.9841 43.1465 65.3351 44.937 62.0706C46.719 58.8124 49.221 56.2276 52.373 54.3797C55.525 52.5297 59.1102 51.5888 63.0247 51.5888C66.9392 51.5888 70.6328 52.5297 73.7869 54.3818C76.9346 56.2233 79.4536 58.8145 81.2802 62.077C83.1005 65.3415 84.0223 69.0585 84.0223 73.1237" fill="var(--fill-0, white)"/>
<path id="Vector_3" d="M50.5336 70.4072H54.1104C55.8202 70.4072 56.7717 71.5796 56.7717 72.9581C56.7717 74.3365 55.8075 75.509 54.1104 75.509H51.961V78.5484H50.5315V70.4051L50.5336 70.4072ZM53.915 71.6646H51.961V74.2537H53.915C54.72 74.2537 55.3062 73.7418 55.3062 72.9602C55.3062 72.1786 54.72 71.6667 53.915 71.6667V71.6646Z" fill="var(--fill-0, white)"/>
<path id="Vector_4" d="M62.9716 70.2734C65.4142 70.2734 67.1346 72.0554 67.1346 74.4852C67.1346 76.9151 65.4142 78.6971 62.9716 78.6971C60.5291 78.6971 58.8086 76.9151 58.8086 74.4852C58.8086 72.0554 60.5291 70.2734 62.9716 70.2734ZM62.9716 71.5435C61.3234 71.5435 60.2742 72.8009 60.2742 74.4852C60.2742 76.1695 61.3234 77.4269 62.9716 77.4269C64.6198 77.4269 65.6691 76.1568 65.6691 74.4852C65.6691 72.8137 64.6071 71.5435 62.9716 71.5435Z" fill="var(--fill-0, white)"/>
<path id="Vector_5" d="M70.0041 76.3034C70.5648 76.9023 71.4441 77.4269 72.5804 77.4269C73.7168 77.4269 74.2159 76.8535 74.2159 76.3161C74.2159 75.5833 73.3493 75.3646 72.3595 75.1076C71.0278 74.7783 69.4667 74.3875 69.4667 72.665C69.4667 71.3226 70.6519 70.284 72.4339 70.284C73.704 70.284 74.7299 70.6876 75.486 71.4204L74.6683 72.4823C74.0332 71.8473 73.1666 71.5542 72.3128 71.5542C71.459 71.5542 70.9322 71.9577 70.9322 72.5673C70.9322 73.1769 71.7627 73.4105 72.727 73.6548C74.0693 73.9967 75.6687 74.4109 75.6687 76.1823C75.6687 77.5374 74.7171 78.6971 72.5188 78.6971C71.0172 78.6971 69.9297 78.1725 69.2097 77.4036L70.0041 76.3055V76.3034Z" fill="var(--fill-0, white)"/>
</g>
<defs>
<radialGradient id="paint0_radial_0_4" cx="0" cy="0" r="1" gradientUnits="userSpaceOnUse" gradientTransform="translate(63.8126 63.7984) scale(63.2093 56.8884)">
<stop stop-color="#00CAFF" stop-opacity="0.3"/>
<stop offset="0.34" stop-color="#00CAFF" stop-opacity="0.29"/>
<stop offset="0.75" stop-color="#00CAFF" stop-opacity="0.1"/>
<stop offset="1" stop-color="#00CAFF" stop-opacity="0"/>
</radialGradient>
<linearGradient id="paint1_linear_0_4" x1="63.1012" y1="126.268" x2="63.1012" y2="24.6994" gradientUnits="userSpaceOnUse">
<stop stop-color="#00CAFF" stop-opacity="0.2"/>
<stop offset="0.08" stop-color="#00CAFF" stop-opacity="0.22"/>
<stop offset="0.16" stop-color="#00CAFF" stop-opacity="0.26"/>
<stop offset="0.24" stop-color="#00CAFF" stop-opacity="0.34"/>
<stop offset="0.32" stop-color="#00CAFF" stop-opacity="0.45"/>
<stop offset="0.35" stop-color="#00CAFF" stop-opacity="0.5"/>
<stop offset="1" stop-color="#00CAFF" stop-opacity="0.5"/>
</linearGradient>
</defs>
</svg>
