<svg preserveAspectRatio="none" width="100%" height="100%" overflow="visible" style="display: block;" viewBox="0 0 132.98 20.0234" fill="none" xmlns="http://www.w3.org/2000/svg">
<g id="Layer_1-2">
<path id="Vector" d="M78.7457 7.23654C78.0364 6.815 77.2327 6.60423 76.4053 6.62764C75.6961 6.62764 74.9869 6.76816 74.3486 7.09603C73.8521 7.35364 73.4266 7.68151 73.072 8.10305V3.65341C73.072 3.44263 73.0011 3.25528 72.8592 3.11476C72.7174 2.97425 72.5283 2.90399 72.3155 2.90399C72.1027 2.90399 71.9136 2.97425 71.7718 3.11476C71.6299 3.25528 71.559 3.46605 71.559 3.65341V11.3349C71.559 12.1546 71.7718 12.9742 72.1973 13.6768C72.5992 14.356 73.1666 14.918 73.8758 15.3162C74.585 15.7143 75.4124 15.9251 76.2398 15.9251C77.0908 15.9485 77.9182 15.7377 78.6511 15.3162C79.3603 14.918 79.9277 14.356 80.3295 13.6534C80.7551 12.9274 80.9678 12.1077 80.9442 11.2646C80.9678 10.445 80.7551 9.6253 80.3532 8.89931C79.9986 8.22015 79.4312 7.63467 78.7457 7.23654ZM79.5021 11.2646C79.5021 11.8501 79.3603 12.4356 79.0766 12.9508C78.5092 13.9579 77.4454 14.5668 76.2634 14.5433C75.1051 14.5668 74.0412 13.9344 73.4739 12.9508C72.9301 11.897 72.9301 10.6323 73.4739 9.57846C73.7339 9.08666 74.1358 8.68854 74.6086 8.4075C75.6251 7.84544 76.8781 7.84544 77.8946 8.4075C78.3674 8.68854 78.7693 9.08666 79.053 9.57846C79.3603 10.1171 79.5021 10.6792 79.5021 11.2646Z" fill="var(--fill-0, #E7E8E9)"/>
<path id="Vector_2" d="M88.4618 7.21309C87.7762 6.81497 87.0197 6.62761 86.216 6.62761C85.4122 6.60419 84.6084 6.81497 83.9229 7.23651C83.2609 7.63464 82.7172 8.1967 82.3626 8.87586C81.9844 9.62527 81.7716 10.4449 81.7952 11.288C81.7716 12.1311 81.9844 12.9508 82.3862 13.7002C82.7645 14.3794 83.3555 14.9649 84.0411 15.3396C85.294 16.0187 86.7833 16.1124 88.1072 15.6206C88.6273 15.4567 89.1001 15.1756 89.5256 14.8478C89.6674 14.7307 89.762 14.5667 89.762 14.3794C89.7384 14.192 89.6438 14.0047 89.502 13.8641C89.3601 13.7471 89.1946 13.7002 89.0292 13.7236C88.8637 13.7236 88.6982 13.7939 88.5563 13.911C88.2727 14.1218 87.9653 14.2857 87.6344 14.4028C87.2561 14.5199 86.8779 14.5901 86.476 14.5901C85.885 14.5901 85.294 14.4496 84.7976 14.1686C84.3247 13.8876 83.9229 13.4894 83.6392 12.9976C83.4264 12.6229 83.3082 12.2248 83.2609 11.8033H89.762C89.9511 11.8033 90.1402 11.733 90.2584 11.6159C90.4003 11.4754 90.4712 11.3115 90.4712 11.1241C90.4949 10.3278 90.3057 9.53159 89.9511 8.8056C89.6202 8.14986 89.1001 7.5878 88.4618 7.21309ZM83.2609 10.5386C83.3082 10.2108 83.4264 9.88288 83.5683 9.57843C83.8047 9.11005 84.1593 8.6885 84.6321 8.40747C85.1049 8.12644 85.6486 7.96251 86.216 7.98593C86.7597 7.96251 87.2798 8.10302 87.7526 8.38405C88.1781 8.66508 88.5327 9.03979 88.7455 9.50818C88.8873 9.83604 89.0055 10.1873 89.0528 10.5386H83.2609Z" fill="var(--fill-0, #E7E8E9)"/>
<path id="Vector_3" d="M97.9652 7.11944C97.3032 6.79157 96.5704 6.60422 95.8139 6.62764C95.1283 6.62764 94.4428 6.76815 93.8281 7.09602C93.4972 7.25995 93.2135 7.49415 92.9534 7.75176V7.49415C92.9534 7.28337 92.8825 7.09602 92.7407 6.9555C92.5988 6.81499 92.4097 6.74473 92.197 6.74473C91.7951 6.72131 91.4641 7.00234 91.4405 7.40047C91.4405 7.42389 91.4405 7.47073 91.4405 7.49415V15.1522C91.4405 15.3396 91.5114 15.5504 91.6532 15.6909C91.7951 15.8314 92.0078 15.9016 92.197 15.9016C92.3861 15.9016 92.5988 15.8314 92.7407 15.6909C92.8825 15.5504 92.9534 15.363 92.9534 15.1522V10.3045C92.9534 9.8829 93.0716 9.48478 93.308 9.13349C93.5681 8.7822 93.899 8.50117 94.3009 8.31382C94.7501 8.10305 95.2229 8.00937 95.7193 8.00937C96.2158 8.00937 96.7122 8.10305 97.185 8.31382C97.6106 8.52459 97.9652 8.85246 98.1779 9.25059C98.438 9.74239 98.5798 10.3044 98.5562 10.8431V15.082C98.5562 15.2693 98.6271 15.4567 98.7689 15.5972C98.9108 15.7377 99.0999 15.808 99.3127 15.808C99.5018 15.808 99.6909 15.7377 99.8327 15.5972C99.9746 15.4567 100.046 15.2693 100.046 15.082V10.8899C100.069 10.0703 99.88 9.274 99.5018 8.57143C99.1235 7.93911 98.5798 7.44731 97.9652 7.11944Z" fill="var(--fill-0, #E7E8E9)"/>
<path id="Vector_4" d="M107.658 7.21309C106.972 6.81497 106.216 6.62761 105.435 6.62761C104.632 6.60419 103.828 6.81497 103.142 7.23651C102.48 7.63464 101.937 8.1967 101.582 8.87586C101.204 9.62527 100.991 10.4449 101.015 11.288C100.991 12.1311 101.204 12.9508 101.606 13.7002C101.984 14.3794 102.575 14.9648 103.261 15.3396C104.514 16.0187 105.979 16.1358 107.327 15.644C107.847 15.4801 108.32 15.199 108.745 14.8712C108.887 14.7541 108.982 14.5901 108.982 14.4028C108.982 14.2154 108.863 14.0281 108.721 13.8876C108.58 13.7705 108.414 13.7236 108.249 13.7471C108.083 13.7471 107.918 13.8173 107.776 13.9344C107.492 14.1452 107.185 14.3325 106.854 14.4262C106.476 14.5433 106.097 14.6136 105.696 14.6136C105.105 14.6136 104.514 14.473 104.017 14.192C103.544 13.911 103.142 13.5129 102.859 13.0211C102.646 12.6463 102.528 12.2482 102.48 11.8267H108.982C109.171 11.8267 109.36 11.7564 109.478 11.6393C109.62 11.4988 109.691 11.3349 109.691 11.1475C109.714 10.3513 109.525 9.55501 109.171 8.82902C108.84 8.14986 108.32 7.5878 107.658 7.21309ZM108.249 10.5386H102.504C102.551 10.2108 102.67 9.88288 102.811 9.57843C103.048 9.08663 103.402 8.6885 103.875 8.40747C104.348 8.12644 104.892 7.96251 105.459 7.98593C106.003 7.96251 106.523 8.10302 106.996 8.38405C107.421 8.66508 107.776 9.03979 107.989 9.50818C108.107 9.83604 108.201 10.1873 108.249 10.5386Z" fill="var(--fill-0, #E7E8E9)"/>
<path id="Vector_5" d="M117.823 3.4426C117.516 3.23182 117.185 3.09131 116.83 2.99763C116.405 2.90396 115.979 2.85712 115.554 2.85712C114.584 2.85712 113.78 3.02105 113.213 3.37234C112.646 3.70021 112.197 4.19201 111.913 4.77749C111.629 5.40981 111.511 6.08897 111.511 6.76812V7.07257H110.565C110.376 7.07257 110.187 7.14283 110.069 7.25993C109.951 7.37702 109.88 7.56438 109.88 7.72831C109.88 7.89225 109.951 8.0796 110.069 8.1967C110.211 8.33721 110.376 8.38405 110.565 8.38405H111.511V15.1288C111.511 15.3396 111.582 15.5269 111.724 15.6674C111.866 15.8079 112.055 15.8782 112.244 15.8782C112.457 15.8782 112.646 15.8079 112.788 15.6674C112.929 15.5269 113 15.3396 113 15.1288V8.36063H114.868C115.057 8.36063 115.223 8.29037 115.364 8.17328C115.506 8.05618 115.577 7.89225 115.577 7.70489C115.577 7.51754 115.506 7.3536 115.364 7.21309C115.223 7.09599 115.057 7.02573 114.868 7.02573H113V6.7447C112.977 6.20606 113.071 5.644 113.284 5.12878C113.426 4.77749 113.686 4.49646 114.041 4.30911C114.395 4.14517 114.773 4.0515 115.152 4.0515C115.364 4.0515 115.577 4.09833 115.766 4.16859C115.932 4.26227 116.121 4.35595 116.263 4.47304C116.405 4.59014 116.57 4.70723 116.736 4.80091C116.901 4.89459 117.114 4.96485 117.303 4.96485C118.059 4.96485 118.225 4.51988 118.225 4.14517C118.249 3.88756 118.083 3.60653 117.823 3.4426Z" fill="var(--fill-0, #E7E8E9)"/>
<path id="Vector_6" d="M117.374 6.72131C116.972 6.69789 116.641 6.97892 116.617 7.37705C116.617 7.40047 116.617 7.44731 116.617 7.47072V15.1288C116.594 15.5269 116.877 15.8548 117.279 15.8782C117.303 15.8782 117.35 15.8782 117.374 15.8782C117.563 15.8782 117.776 15.808 117.918 15.6674C118.059 15.5269 118.13 15.3162 118.13 15.1288V7.47072C118.13 7.25995 118.059 7.0726 117.918 6.93208C117.752 6.76815 117.563 6.69789 117.374 6.72131Z" fill="var(--fill-0, #E7E8E9)"/>
<path id="Vector_7" d="M124.49 14.3794H124.04C123.591 14.4028 123.166 14.2155 122.858 13.8876C122.527 13.5363 122.362 13.0679 122.386 12.5996V8.36068H124.135C124.324 8.36068 124.49 8.29043 124.631 8.17333C124.773 8.05623 124.844 7.8923 124.82 7.70495C124.82 7.51759 124.75 7.35366 124.631 7.21314C124.49 7.09605 124.324 7.02579 124.135 7.02579H122.386V4.61361C122.386 4.40284 122.315 4.21548 122.173 4.07497C122.031 3.93445 121.842 3.8642 121.629 3.8642C121.44 3.8642 121.227 3.93445 121.085 4.07497C120.943 4.21548 120.873 4.40284 120.873 4.61361V7.02579H119.927C119.738 7.02579 119.572 7.09605 119.431 7.21314C119.289 7.33024 119.218 7.51759 119.241 7.70495C119.241 7.8923 119.312 8.05623 119.431 8.17333C119.572 8.29043 119.738 8.36068 119.927 8.36068H120.873V12.5996C120.873 13.185 121.014 13.7705 121.274 14.2857C121.818 15.2693 122.858 15.8782 123.993 15.8782H124.348C124.56 15.8782 124.75 15.808 124.915 15.6909C125.081 15.5504 125.151 15.363 125.151 15.1523C125.151 14.9649 125.081 14.7775 124.962 14.6136C124.868 14.4497 124.679 14.3794 124.49 14.3794Z" fill="var(--fill-0, #E7E8E9)"/>
<path id="Vector_8" d="M132.669 12.0609C132.409 11.6628 132.031 11.3349 131.605 11.1241C130.991 10.8197 130.305 10.6323 129.619 10.5386C129.147 10.4684 128.674 10.3513 128.248 10.1874C127.988 10.0937 127.776 9.92975 127.586 9.7424C127.468 9.57846 127.397 9.36769 127.397 9.15692C127.397 8.80563 127.586 8.50118 127.894 8.33724C128.319 8.07963 128.792 7.96254 129.289 7.98596C129.69 7.98596 130.116 8.05621 130.494 8.19673C130.849 8.33724 131.156 8.57144 131.416 8.85247C131.558 8.99298 131.723 9.11008 131.936 9.1335C132.125 9.15692 132.314 9.1335 132.456 9.03982C132.622 8.94614 132.74 8.78221 132.764 8.59486C132.787 8.4075 132.74 8.22015 132.598 8.07963C132.244 7.63467 131.771 7.28338 131.251 7.04919C130.636 6.76816 129.974 6.65106 129.289 6.65106C128.721 6.65106 128.154 6.74474 127.634 6.93209C127.161 7.09603 126.735 7.40048 126.404 7.7986C126.073 8.22015 125.908 8.73537 125.932 9.25059C125.932 9.88291 126.239 10.4918 126.735 10.8899C127.255 11.3349 128.106 11.6394 129.218 11.8267C130.045 11.9672 130.66 12.1546 131.014 12.4122C131.322 12.5995 131.511 12.9274 131.534 13.2787C131.511 13.6534 131.322 13.9813 131.014 14.192C130.683 14.4497 130.116 14.5902 129.312 14.5902C128.839 14.5902 128.367 14.5199 127.917 14.356C127.539 14.2155 127.185 13.9813 126.901 13.6768C126.641 13.3724 126.168 13.349 125.861 13.5831C125.695 13.7002 125.601 13.8876 125.577 14.0749C125.553 14.2623 125.624 14.4731 125.766 14.6136C126.192 15.082 126.759 15.4333 127.35 15.6206C127.988 15.8314 128.65 15.9485 129.312 15.9485C129.95 15.9719 130.612 15.8548 131.203 15.6206C131.7 15.4333 132.149 15.1054 132.504 14.6838C132.811 14.2857 132.976 13.7939 132.976 13.2787C133 12.8337 132.905 12.4356 132.669 12.0609Z" fill="var(--fill-0, #E7E8E9)"/>
<path id="Vector_9" d="M1.98578 0H66.3818C67.4692 0 68.3676 0.866511 68.3676 1.96721V18.0562C68.3676 19.1335 67.4929 20.0234 66.3818 20.0234H1.98578C0.898329 20.0234 0 19.1569 0 18.0562V1.96721C0 0.866511 0.874689 0 1.98578 0Z" fill="var(--fill-0, #F2F6F8)"/>
<path id="Vector_10" d="M33.4037 6.53394C33.2146 6.53394 33.0491 6.58077 32.9072 6.72129C32.789 6.8618 32.7181 7.02574 32.7181 7.21309V15.199C32.6945 15.5503 32.9545 15.8314 33.2855 15.8548C33.3091 15.8548 33.3564 15.8548 33.38 15.8548C33.5455 15.8548 33.7346 15.8079 33.8528 15.6674C33.971 15.5269 34.042 15.363 34.042 15.1756V7.21309C34.042 7.02574 33.9947 6.8618 33.8528 6.72129C33.7583 6.60419 33.5692 6.53394 33.4037 6.53394Z" fill="var(--fill-0, #00497A)"/>
<path id="Vector_11" d="M33.4037 3.30212C33.1673 3.30212 32.9308 3.3958 32.7417 3.55974C32.5526 3.72367 32.4344 3.98128 32.458 4.23889C32.458 4.4965 32.5526 4.7307 32.7417 4.89463C32.9072 5.08198 33.1436 5.17566 33.4037 5.17566C33.9237 5.17566 34.3493 4.75411 34.3493 4.23889C34.3729 3.98128 34.2547 3.74709 34.0656 3.55974C33.8765 3.3958 33.6401 3.30212 33.4037 3.30212Z" fill="var(--fill-0, #00497A)"/>
<path id="Vector_12" d="M30.1177 14.5433H29.6449C29.1484 14.5667 28.652 14.356 28.321 13.9813C27.9664 13.5831 27.7773 13.0913 27.8009 12.5527V8.03278H29.7394C29.9049 8.03278 30.0467 7.98594 30.165 7.86884C30.2832 7.77517 30.3304 7.61123 30.3304 7.47072C30.3304 7.30678 30.2832 7.16627 30.165 7.04917C30.0467 6.93208 29.9049 6.88524 29.7394 6.88524H27.8009V4.23887C27.8246 3.88758 27.5409 3.58313 27.1863 3.58313C27.1626 3.58313 27.139 3.58313 27.139 3.58313C26.9735 3.58313 26.7844 3.65339 26.6662 3.77048C26.548 3.88758 26.4771 4.07493 26.4771 4.23887V6.88524H25.366C25.2005 6.88524 25.0587 6.93208 24.9405 7.04917C24.8223 7.16627 24.7513 7.30678 24.775 7.47072C24.775 7.61123 24.8459 7.77517 24.9405 7.86884C25.0587 7.98594 25.2005 8.03278 25.366 8.03278H26.4771V12.5761C26.4771 13.1616 26.6189 13.7471 26.879 14.2623C27.4227 15.2693 28.4865 15.8782 29.6212 15.8548H29.9995C30.1886 15.8548 30.3777 15.808 30.5196 15.6674C30.6614 15.5503 30.7323 15.3864 30.7323 15.1991C30.7323 15.0351 30.685 14.8712 30.5668 14.7307C30.4486 14.6136 30.2832 14.5433 30.1177 14.5433Z" fill="var(--fill-0, #00497A)"/>
<path id="Vector_13" d="M22.7183 6.53394C22.5528 6.53394 22.3637 6.58078 22.2218 6.67445C22.1036 6.76813 22.0327 6.88522 22.0327 7.02574V7.86883C21.7254 7.56438 21.3944 7.28335 21.0162 7.07258C19.5032 6.25291 17.6593 6.25291 16.1463 7.07258C15.4371 7.47071 14.8461 8.05619 14.4442 8.75876C14.0187 9.50818 13.8059 10.3513 13.8059 11.1944C13.7823 12.0374 13.995 12.8805 14.4206 13.6065C15.2243 15.0585 16.7609 15.9485 18.4394 15.925C19.2195 15.9485 19.9997 15.7377 20.6852 15.363C21.2053 15.0585 21.6545 14.6604 22.0091 14.1452V15.199C22.0091 15.3864 22.08 15.5503 22.1982 15.6674C22.4819 15.9016 22.8838 15.9016 23.1674 15.6674C23.2857 15.5503 23.3566 15.3864 23.3566 15.199V7.04916C23.3566 6.90864 23.2857 6.76813 23.1674 6.69787C23.0492 6.58078 22.8838 6.53394 22.7183 6.53394ZM22.0564 11.4988C22.0327 12.0374 21.8672 12.5527 21.6308 13.0211C21.3472 13.5363 20.9216 13.9812 20.4015 14.2857C18.7467 15.2459 16.6191 14.7072 15.6262 13.0913C15.6026 13.0679 15.6026 13.0445 15.6026 13.0211C15.2952 12.459 15.1298 11.8501 15.1298 11.2178C15.1298 10.5855 15.2952 9.95314 15.6026 9.39108C15.9099 8.87586 16.3354 8.43089 16.8555 8.12644C17.943 7.49412 19.3141 7.49412 20.4015 8.12644C20.9216 8.43089 21.3472 8.87586 21.6308 9.39108C21.8909 9.85946 22.0327 10.3747 22.0564 10.9133V11.4988Z" fill="var(--fill-0, #00497A)"/>
<path id="Vector_14" d="M9.90526 6.93211C9.21969 6.58082 8.48684 6.41689 7.73035 6.44031C7.02115 6.44031 6.33558 6.60424 5.69729 6.93211C5.27177 7.14288 4.91717 7.44733 4.5862 7.79862V7.21314C4.5862 7.02579 4.53892 6.86185 4.39708 6.72134C4.27888 6.60424 4.08976 6.53398 3.92428 6.53398C3.73515 6.53398 3.56967 6.58082 3.42783 6.72134C3.30963 6.86185 3.23871 7.02579 3.23871 7.21314V15.2225C3.23871 15.3864 3.28599 15.5738 3.42783 15.6909C3.56967 15.808 3.73515 15.8782 3.92428 15.8782C4.27888 15.9017 4.56256 15.6441 4.5862 15.2928C4.5862 15.2693 4.5862 15.2459 4.5862 15.2225V10.164C4.5862 9.71899 4.72804 9.27403 4.98809 8.89932C5.27177 8.52461 5.62637 8.22017 6.0519 8.00939C6.5247 7.79862 7.04479 7.68152 7.56487 7.68152C8.1086 7.68152 8.65232 7.79862 9.14877 8.03281C9.62157 8.267 9.99982 8.61829 10.2599 9.06326C10.5435 9.6019 10.6854 10.1874 10.6617 10.7729V15.1991C10.6617 15.363 10.7327 15.5504 10.8509 15.6675C10.9691 15.7846 11.1582 15.8548 11.3237 15.8548C11.6783 15.8548 11.962 15.5738 11.9856 15.2225C11.9856 15.2225 11.9856 15.2225 11.9856 15.1991V10.7729C12.0092 9.95319 11.8201 9.13351 11.4182 8.40752C11.0636 7.7752 10.5435 7.2834 9.90526 6.93211Z" fill="var(--fill-0, #00497A)"/>
<path id="Vector_15" d="M63.6395 11.1475C63.0013 10.8431 62.3157 10.6323 61.6065 10.5386C61.11 10.4684 60.6136 10.3513 60.1408 10.1639C59.8571 10.0702 59.5971 9.88289 59.4079 9.6487C59.0297 9.13347 59.1715 8.4309 59.668 8.05619C59.6916 8.03277 59.7153 8.00935 59.7389 8.00935C60.1881 7.72832 60.7318 7.58781 61.2519 7.63464C61.701 7.63464 62.1502 7.7049 62.5521 7.86884C62.9303 8.03277 63.2849 8.26696 63.545 8.59483C63.6632 8.71193 63.8287 8.8056 63.9941 8.82902C64.1596 8.85244 64.3251 8.82902 64.4669 8.75877C64.6088 8.68851 64.7033 8.54799 64.7506 8.38406C64.7743 8.22012 64.727 8.05619 64.6088 7.91567C64.2542 7.47071 63.7814 7.096 63.2613 6.86181C62.6466 6.58078 61.9611 6.46368 61.2755 6.46368C60.6845 6.46368 60.1171 6.55736 59.5734 6.74471C59.077 6.90865 58.6514 7.2131 58.3441 7.61123C58.0132 8.03277 57.8477 8.54799 57.8713 9.06322C57.8713 9.69553 58.1786 10.3044 58.6751 10.6791C59.2188 11.1241 60.0699 11.452 61.2282 11.6393C62.1266 11.7798 62.7648 11.9906 63.1431 12.2716C63.4977 12.4824 63.7341 12.8805 63.7341 13.2787C63.7105 13.7002 63.4977 14.0749 63.1431 14.3325C62.7648 14.637 62.1502 14.7775 61.2991 14.7775C60.7791 14.7775 60.2826 14.7072 59.7862 14.5199C59.3607 14.3794 58.9824 14.1218 58.6987 13.7939C58.4387 13.5129 58.0132 13.4894 57.7295 13.7471C57.6113 13.8642 57.5404 14.0047 57.5167 14.1686C57.4931 14.3325 57.5404 14.5199 57.6586 14.637C58.1077 15.1054 58.6514 15.4567 59.2661 15.6674C59.9044 15.9016 60.5899 15.9953 61.2755 15.9953C61.9374 16.0187 62.5757 15.9016 63.1904 15.6674C63.7105 15.4801 64.1596 15.1522 64.4906 14.7307C64.7979 14.3325 64.9634 13.8407 64.9634 13.3255C64.9634 12.904 64.8452 12.5058 64.6561 12.1546C64.4433 11.6862 64.0887 11.3583 63.6395 11.1475Z" fill="var(--fill-0, #00497A)"/>
<path id="Vector_16" d="M54.0179 6.93211C53.3324 6.58082 52.5995 6.41689 51.843 6.44031C51.1338 6.44031 50.4483 6.60424 49.81 6.93211C49.3845 7.14288 49.0299 7.44733 48.7225 7.79862V7.21314C48.7225 7.02579 48.6753 6.86185 48.5334 6.72134C48.4152 6.60424 48.2261 6.53398 48.0606 6.53398C47.706 6.51056 47.4223 6.76817 47.3987 7.09604C47.3987 7.11946 47.3987 7.1663 47.3987 7.18972V15.1991C47.3987 15.363 47.446 15.5504 47.5878 15.6675C47.7296 15.7846 47.8951 15.8548 48.0842 15.8548C48.4389 15.8782 48.7225 15.6206 48.7462 15.2693C48.7462 15.2459 48.7462 15.2225 48.7462 15.1991V10.164C48.7462 9.71899 48.888 9.27403 49.1481 8.89932C49.4317 8.52461 49.7863 8.22017 50.2119 8.00939C51.2048 7.56443 52.3159 7.58785 53.3087 8.03281C53.7579 8.267 54.1598 8.61829 54.4198 9.03984C54.7035 9.57848 54.8454 10.164 54.8217 10.7729V15.1991C54.8217 15.363 54.8926 15.5504 55.0108 15.6675C55.129 15.7846 55.3182 15.8548 55.4836 15.8548C55.8382 15.8548 56.1219 15.5738 56.1456 15.2225C56.1456 15.2225 56.1456 15.2225 56.1456 15.1991V10.7729C56.1692 9.95319 55.9801 9.13351 55.6018 8.40752C55.2 7.79862 54.6562 7.2834 54.0179 6.93211Z" fill="var(--fill-0, #00497A)"/>
<path id="Vector_17" d="M43.2616 7.07258C41.725 6.25291 39.8811 6.25291 38.3445 7.07258C37.6353 7.47071 37.0442 8.05619 36.6424 8.75876C36.2168 9.50818 36.0041 10.3513 36.0277 11.2178C36.0041 12.0609 36.2168 12.904 36.6424 13.6534C37.0442 14.356 37.6353 14.9414 38.3445 15.3396C39.8811 16.1592 41.725 16.1592 43.2616 15.3396C43.9708 14.9414 44.5618 14.356 44.9637 13.6534C45.3893 12.904 45.602 12.0609 45.5784 11.2178C45.5784 10.3513 45.3656 9.50818 44.9401 8.75876C44.5618 8.05619 43.9708 7.47071 43.2616 7.07258ZM43.829 13.0211C43.5453 13.5363 43.1198 13.9812 42.5997 14.2857C41.4886 14.8946 40.1411 14.8946 39.03 14.2857C38.5099 13.9812 38.0844 13.5597 37.7771 13.0211C37.4698 12.459 37.3043 11.8267 37.3279 11.1944C37.3279 10.562 37.4698 9.92972 37.7771 9.36766C38.0608 8.82902 38.5099 8.40747 39.03 8.10302C40.1411 7.49412 41.4886 7.49412 42.5997 8.10302C43.1198 8.40747 43.5453 8.85244 43.829 9.36766C44.1363 9.92972 44.2782 10.562 44.2782 11.1944C44.3018 11.8501 44.16 12.459 43.829 13.0211Z" fill="var(--fill-0, #00497A)"/>
</g>
</svg>
