<svg preserveAspectRatio="none" width="100%" height="100%" overflow="visible" style="display: block;" viewBox="0 0 197.374 30" fill="none" xmlns="http://www.w3.org/2000/svg">
<g id="Layer_1-2">
<path id="Vector" d="M116.877 10.8421C115.825 10.2105 114.632 9.8947 113.404 9.92979C112.351 9.92979 111.298 10.1403 110.351 10.6315C109.614 11.0175 108.982 11.5087 108.456 12.1403V5.47365C108.456 5.15786 108.351 4.87716 108.14 4.66664C107.93 4.45611 107.649 4.35085 107.333 4.35085C107.018 4.35085 106.737 4.45611 106.526 4.66664C106.316 4.87716 106.211 5.19295 106.211 5.47365V16.9824C106.211 18.2105 106.526 19.4386 107.158 20.4912C107.754 21.5087 108.596 22.3508 109.649 22.9473C110.702 23.5438 111.93 23.8596 113.158 23.8596C114.421 23.8947 115.649 23.5789 116.737 22.9473C117.789 22.3508 118.632 21.5087 119.228 20.4561C119.86 19.3684 120.175 18.1403 120.14 16.8772C120.175 15.6491 119.86 14.421 119.263 13.3333C118.737 12.3158 117.895 11.4386 116.877 10.8421ZM118 16.8772C118 17.7544 117.789 18.6315 117.368 19.4035C116.526 20.9122 114.947 21.8245 113.193 21.7894C111.474 21.8245 109.895 20.8772 109.053 19.4035C108.246 17.8245 108.246 15.9298 109.053 14.3508C109.439 13.614 110.035 13.0175 110.737 12.5965C112.246 11.7544 114.105 11.7544 115.614 12.5965C116.316 13.0175 116.912 13.614 117.333 14.3508C117.789 15.1579 118 16 118 16.8772Z" fill="var(--fill-0, #808285)"/>
<path id="Vector_2" d="M131.298 10.807C130.281 10.2105 129.158 9.92981 127.965 9.92981C126.772 9.89472 125.579 10.2105 124.561 10.8421C123.579 11.4386 122.772 12.2807 122.246 13.2982C121.684 14.421 121.369 15.6491 121.404 16.9123C121.369 18.1754 121.684 19.4035 122.281 20.5263C122.842 21.5438 123.719 22.421 124.737 22.9824C126.597 24 128.807 24.1403 130.772 23.4035C131.544 23.1579 132.246 22.7368 132.877 22.2456C133.088 22.0702 133.228 21.8245 133.228 21.5438C133.193 21.2631 133.053 20.9824 132.842 20.7719C132.632 20.5965 132.386 20.5263 132.14 20.5614C131.895 20.5614 131.649 20.6667 131.439 20.8421C131.018 21.1579 130.561 21.4035 130.07 21.5789C129.509 21.7544 128.947 21.8596 128.351 21.8596C127.474 21.8596 126.597 21.6491 125.86 21.2281C125.158 20.807 124.561 20.2105 124.14 19.4737C123.825 18.9123 123.649 18.3158 123.579 17.6842H133.228C133.509 17.6842 133.79 17.5789 133.965 17.4035C134.176 17.193 134.281 16.9474 134.281 16.6667C134.316 15.4737 134.035 14.2807 133.509 13.193C133.018 12.2105 132.246 11.3684 131.298 10.807ZM123.579 15.7895C123.649 15.2982 123.825 14.807 124.035 14.3509C124.386 13.6491 124.912 13.0175 125.614 12.5965C126.316 12.1754 127.123 11.9298 127.965 11.9649C128.772 11.9298 129.544 12.1403 130.246 12.5614C130.877 12.9824 131.404 13.5438 131.719 14.2456C131.93 14.7368 132.105 15.2631 132.176 15.7895H123.579Z" fill="var(--fill-0, #808285)"/>
<path id="Vector_3" d="M145.403 10.6666C144.421 10.1754 143.333 9.89468 142.21 9.92976C141.193 9.92976 140.175 10.1403 139.263 10.6315C138.772 10.8771 138.351 11.228 137.965 11.614V11.228C137.965 10.9122 137.859 10.6315 137.649 10.421C137.438 10.2105 137.158 10.1052 136.842 10.1052C136.245 10.0701 135.754 10.4912 135.719 11.0877C135.719 11.1227 135.719 11.1929 135.719 11.228V22.7017C135.719 22.9824 135.824 23.2982 136.035 23.5087C136.245 23.7192 136.561 23.8245 136.842 23.8245C137.123 23.8245 137.438 23.7192 137.649 23.5087C137.859 23.2982 137.965 23.0175 137.965 22.7017V15.4385C137.965 14.807 138.14 14.2105 138.491 13.6841C138.877 13.1578 139.368 12.7368 139.965 12.4561C140.631 12.1403 141.333 11.9999 142.07 11.9999C142.807 11.9999 143.544 12.1403 144.245 12.4561C144.877 12.7719 145.403 13.2631 145.719 13.8596C146.105 14.5964 146.316 15.4385 146.281 16.2456V22.5964C146.281 22.8771 146.386 23.1578 146.596 23.3684C146.807 23.5789 147.088 23.6841 147.403 23.6841C147.684 23.6841 147.965 23.5789 148.175 23.3684C148.386 23.1578 148.491 22.8771 148.491 22.5964V16.3157C148.526 15.0877 148.245 13.8947 147.684 12.842C147.123 11.8947 146.316 11.1578 145.403 10.6666Z" fill="var(--fill-0, #808285)"/>
<path id="Vector_4" d="M159.789 10.807C158.772 10.2105 157.649 9.92981 156.491 9.92981C155.298 9.89472 154.105 10.2105 153.088 10.8421C152.105 11.4386 151.298 12.2807 150.772 13.2982C150.21 14.421 149.895 15.6491 149.93 16.9123C149.895 18.1754 150.21 19.4035 150.807 20.5263C151.368 21.5438 152.246 22.421 153.263 22.9824C155.123 24 157.298 24.1754 159.298 23.4386C160.07 23.193 160.772 22.7719 161.403 22.2807C161.614 22.1052 161.754 21.8596 161.754 21.5789C161.754 21.2982 161.579 21.0175 161.368 20.807C161.158 20.6316 160.912 20.5614 160.667 20.5965C160.421 20.5965 160.175 20.7017 159.965 20.8772C159.544 21.193 159.088 21.4737 158.596 21.614C158.035 21.7895 157.474 21.8947 156.877 21.8947C156 21.8947 155.123 21.6842 154.386 21.2631C153.684 20.8421 153.088 20.2456 152.667 19.5088C152.351 18.9474 152.175 18.3509 152.105 17.7193H161.754C162.035 17.7193 162.316 17.614 162.491 17.4386C162.702 17.2281 162.807 16.9824 162.807 16.7017C162.842 15.5088 162.561 14.3158 162.035 13.2281C161.544 12.2105 160.772 11.3684 159.789 10.807ZM160.667 15.7895H152.14C152.21 15.2982 152.386 14.807 152.596 14.3509C152.947 13.614 153.474 13.0175 154.175 12.5965C154.877 12.1754 155.684 11.9298 156.526 11.9649C157.333 11.9298 158.105 12.1403 158.807 12.5614C159.439 12.9824 159.965 13.5438 160.281 14.2456C160.456 14.7368 160.596 15.2631 160.667 15.7895Z" fill="var(--fill-0, #808285)"/>
<path id="Vector_5" d="M174.877 5.15787C174.421 4.84208 173.93 4.63155 173.403 4.4912C172.772 4.35085 172.14 4.28067 171.509 4.28067C170.07 4.28067 168.877 4.52629 168.035 5.0526C167.193 5.54383 166.526 6.28067 166.105 7.15787C165.684 8.10524 165.509 9.12278 165.509 10.1403V10.5965H164.105C163.824 10.5965 163.544 10.7017 163.368 10.8772C163.193 11.0526 163.088 11.3333 163.088 11.5789C163.088 11.8245 163.193 12.1052 163.368 12.2807C163.579 12.4912 163.824 12.5614 164.105 12.5614H165.509V22.6666C165.509 22.9824 165.614 23.2631 165.824 23.4737C166.035 23.6842 166.316 23.7894 166.596 23.7894C166.912 23.7894 167.193 23.6842 167.403 23.4737C167.614 23.2631 167.719 22.9824 167.719 22.6666V12.5263H170.491C170.772 12.5263 171.017 12.421 171.228 12.2456C171.438 12.0701 171.544 11.8245 171.544 11.5438C171.544 11.2631 171.438 11.0175 171.228 10.807C171.017 10.6316 170.772 10.5263 170.491 10.5263H167.719V10.1052C167.684 9.29822 167.824 8.45611 168.14 7.68418C168.351 7.15787 168.737 6.73682 169.263 6.45611C169.789 6.2105 170.351 6.07015 170.912 6.07015C171.228 6.07015 171.544 6.14032 171.824 6.24559C172.07 6.38594 172.351 6.52629 172.561 6.70173C172.772 6.87717 173.017 7.0526 173.263 7.19296C173.509 7.33331 173.824 7.43857 174.105 7.43857C175.228 7.43857 175.474 6.7719 175.474 6.2105C175.509 5.82453 175.263 5.40348 174.877 5.15787Z" fill="var(--fill-0, #808285)"/>
<path id="Vector_6" d="M174.21 10.0702C173.614 10.0351 173.123 10.4562 173.088 11.0527C173.088 11.0877 173.088 11.1579 173.088 11.193V22.6667C173.053 23.2632 173.474 23.7544 174.07 23.7895C174.105 23.7895 174.175 23.7895 174.21 23.7895C174.491 23.7895 174.807 23.6842 175.017 23.4737C175.228 23.2632 175.333 22.9474 175.333 22.6667V11.193C175.333 10.8772 175.228 10.5965 175.017 10.386C174.772 10.1404 174.491 10.0351 174.21 10.0702Z" fill="var(--fill-0, #808285)"/>
<path id="Vector_7" d="M184.772 21.5438H184.105C183.439 21.5789 182.807 21.2982 182.351 20.807C181.86 20.2807 181.614 19.5789 181.649 18.8772V12.5263H184.246C184.526 12.5263 184.772 12.421 184.982 12.2456C185.193 12.0702 185.298 11.8246 185.263 11.5438C185.263 11.2631 185.158 11.0175 184.982 10.807C184.772 10.6316 184.526 10.5263 184.246 10.5263H181.649V6.91227C181.649 6.59648 181.544 6.31578 181.333 6.10525C181.123 5.89473 180.842 5.78946 180.526 5.78946C180.246 5.78946 179.93 5.89473 179.719 6.10525C179.509 6.31578 179.403 6.59648 179.403 6.91227V10.5263H178C177.719 10.5263 177.474 10.6316 177.263 10.807C177.053 10.9824 176.947 11.2631 176.982 11.5438C176.982 11.8246 177.088 12.0702 177.263 12.2456C177.474 12.421 177.719 12.5263 178 12.5263H179.403V18.8772C179.403 19.7544 179.614 20.6316 180 21.4035C180.807 22.8772 182.351 23.7895 184.035 23.7895H184.561C184.877 23.7895 185.158 23.6842 185.403 23.5088C185.649 23.2982 185.754 23.0175 185.754 22.7017C185.754 22.421 185.649 22.1403 185.474 21.8947C185.333 21.6491 185.053 21.5438 184.772 21.5438Z" fill="var(--fill-0, #808285)"/>
<path id="Vector_8" d="M196.912 18.0701C196.526 17.4736 195.965 16.9824 195.333 16.6666C194.421 16.2105 193.403 15.9298 192.386 15.7894C191.684 15.6842 190.982 15.5087 190.351 15.2631C189.965 15.1228 189.649 14.8771 189.368 14.5964C189.193 14.3508 189.088 14.035 189.088 13.7192C189.088 13.1929 189.368 12.7368 189.825 12.4912C190.456 12.1052 191.158 11.9298 191.895 11.9649C192.491 11.9649 193.123 12.0701 193.684 12.2806C194.211 12.4912 194.667 12.8421 195.053 13.2631C195.263 13.4736 195.509 13.6491 195.825 13.6842C196.105 13.7192 196.386 13.6842 196.596 13.5438C196.842 13.4035 197.018 13.1578 197.053 12.8771C197.088 12.5964 197.018 12.3157 196.807 12.1052C196.281 11.4385 195.579 10.9122 194.807 10.5614C193.895 10.1403 192.912 9.96486 191.895 9.96486C191.053 9.96486 190.211 10.1052 189.439 10.3859C188.737 10.6315 188.105 11.0877 187.614 11.6842C187.123 12.3157 186.877 13.0877 186.912 13.8596C186.912 14.807 187.368 15.7192 188.105 16.3157C188.877 16.9824 190.14 17.4385 191.789 17.7192C193.018 17.9298 193.93 18.2105 194.456 18.5964C194.912 18.8771 195.193 19.3684 195.228 19.8947C195.193 20.4561 194.912 20.9473 194.456 21.2631C193.965 21.6491 193.123 21.8596 191.93 21.8596C191.228 21.8596 190.526 21.7543 189.86 21.5087C189.298 21.2982 188.772 20.9473 188.351 20.4912C187.965 20.035 187.263 19.9999 186.807 20.3508C186.561 20.5263 186.421 20.807 186.386 21.0877C186.351 21.3684 186.456 21.6842 186.667 21.8947C187.298 22.5964 188.14 23.1228 189.018 23.4035C189.965 23.7192 190.947 23.8947 191.93 23.8947C192.877 23.9298 193.86 23.7543 194.737 23.4035C195.474 23.1228 196.14 22.6315 196.667 21.9999C197.123 21.4035 197.368 20.6666 197.368 19.8947C197.403 19.228 197.263 18.6315 196.912 18.0701Z" fill="var(--fill-0, #808285)"/>
<path id="Vector_9" d="M2.94737 0H98.5263C100.14 0 101.474 1.29825 101.474 2.94737V27.0526C101.474 28.6667 100.175 30 98.5263 30H2.94737C1.33333 30 0 28.7018 0 27.0526V2.94737C0 1.29825 1.29825 0 2.94737 0Z" fill="var(--fill-0, #00497A)"/>
<path id="Vector_10" d="M49.5788 9.78943C49.2981 9.78943 49.0524 9.85961 48.8419 10.0701C48.6665 10.2807 48.5612 10.5263 48.5612 10.807V22.7719C48.5261 23.2982 48.9121 23.7193 49.4033 23.7543C49.4384 23.7543 49.5086 23.7543 49.5437 23.7543C49.7893 23.7543 50.07 23.6842 50.2454 23.4736C50.4209 23.2631 50.5261 23.0175 50.5261 22.7368V10.807C50.5261 10.5263 50.456 10.2807 50.2454 10.0701C50.1051 9.8947 49.8244 9.78943 49.5788 9.78943Z" fill="var(--fill-0, white)"/>
<path id="Vector_11" d="M49.5788 4.9473C49.2279 4.9473 48.877 5.08765 48.5963 5.33326C48.3156 5.57888 48.1402 5.96484 48.1753 6.35081C48.1753 6.73677 48.3156 7.08765 48.5963 7.33326C48.8419 7.61396 49.1928 7.75431 49.5788 7.75431C50.3507 7.75431 50.9823 7.12274 50.9823 6.35081C51.0174 5.96484 50.8419 5.61396 50.5612 5.33326C50.2805 5.08765 49.9297 4.9473 49.5788 4.9473Z" fill="var(--fill-0, white)"/>
<path id="Vector_12" d="M44.7019 21.7895H44.0001C43.2633 21.8246 42.5265 21.5088 42.0352 20.9474C41.5089 20.3509 41.2282 19.6141 41.2633 18.807V12.0351H44.1405C44.3861 12.0351 44.5966 11.9649 44.7721 11.7895C44.9475 11.6491 45.0177 11.4035 45.0177 11.193C45.0177 10.9474 44.9475 10.7369 44.7721 10.5614C44.5966 10.386 44.3861 10.3158 44.1405 10.3158H41.2633V6.3509C41.2984 5.82458 40.8773 5.36844 40.351 5.36844C40.3159 5.36844 40.2808 5.36844 40.2808 5.36844C40.0352 5.36844 39.7545 5.4737 39.5791 5.64914C39.4037 5.82458 39.2984 6.10528 39.2984 6.3509V10.3158H37.6493C37.4037 10.3158 37.1931 10.386 37.0177 10.5614C36.8423 10.7369 36.737 10.9474 36.7721 11.193C36.7721 11.4035 36.8773 11.6491 37.0177 11.7895C37.1931 11.9649 37.4037 12.0351 37.6493 12.0351H39.2984V18.8421C39.2984 19.7193 39.5089 20.5965 39.8949 21.3684C40.7019 22.8772 42.2808 23.7895 43.9651 23.7544H44.5265C44.8072 23.7544 45.0879 23.6842 45.2984 23.4737C45.5089 23.2983 45.6142 23.0527 45.6142 22.7719C45.6142 22.5263 45.544 22.2807 45.3686 22.0702C45.1931 21.8948 44.9475 21.7895 44.7019 21.7895Z" fill="var(--fill-0, white)"/>
<path id="Vector_13" d="M33.7193 9.78947C33.4737 9.78947 33.193 9.85965 32.9824 10C32.807 10.1403 32.7017 10.3158 32.7017 10.5263V11.7895C32.2456 11.3333 31.7544 10.9123 31.193 10.5965C28.9474 9.36842 26.2105 9.36842 23.9649 10.5965C22.9123 11.193 22.0351 12.0702 21.4386 13.1228C20.807 14.2456 20.4912 15.5088 20.4912 16.7719C20.4561 18.0351 20.7719 19.2982 21.4035 20.386C22.5965 22.5614 24.8772 23.8947 27.3684 23.8596C28.5263 23.8947 29.6842 23.5789 30.7017 23.0175C31.4737 22.5614 32.1403 21.9649 32.6667 21.193V22.7719C32.6667 23.0526 32.7719 23.2982 32.9474 23.4737C33.3684 23.8246 33.9649 23.8246 34.3859 23.4737C34.5614 23.2982 34.6667 23.0526 34.6667 22.7719V10.5614C34.6667 10.3509 34.5614 10.1403 34.3859 10.0351C34.2105 9.85965 33.9649 9.78947 33.7193 9.78947ZM32.7368 17.2281C32.7017 18.0351 32.4561 18.807 32.1052 19.5088C31.6842 20.2807 31.0526 20.9474 30.2807 21.4035C27.8245 22.8421 24.6667 22.0351 23.193 19.614C23.1579 19.5789 23.1579 19.5439 23.1579 19.5088C22.7017 18.6667 22.4561 17.7544 22.4561 16.807C22.4561 15.8596 22.7017 14.9123 23.1579 14.0702C23.614 13.2982 24.2456 12.6316 25.0175 12.1754C26.6316 11.2281 28.6667 11.2281 30.2807 12.1754C31.0526 12.6316 31.6842 13.2982 32.1052 14.0702C32.4912 14.7719 32.7017 15.5439 32.7368 16.3509V17.2281Z" fill="var(--fill-0, white)"/>
<path id="Vector_14" d="M14.7017 10.3859C13.6841 9.8596 12.5964 9.61399 11.4736 9.64907C10.421 9.64907 9.40344 9.89469 8.45608 10.3859C7.8245 10.7017 7.29818 11.1578 6.80695 11.6842V10.807C6.80695 10.5263 6.73678 10.2807 6.52625 10.0701C6.35081 9.89469 6.07011 9.78942 5.8245 9.78942C5.5438 9.78942 5.29818 9.8596 5.08765 10.0701C4.91222 10.2807 4.80695 10.5263 4.80695 10.807V22.807C4.80695 23.0526 4.87713 23.3333 5.08765 23.5087C5.29818 23.6842 5.5438 23.7894 5.8245 23.7894C6.35081 23.8245 6.77187 23.4385 6.80695 22.9122C6.80695 22.8771 6.80695 22.8421 6.80695 22.807V15.228C6.80695 14.5614 7.01748 13.8947 7.40344 13.3333C7.8245 12.7719 8.35081 12.3157 8.98239 12C9.68415 11.6842 10.4561 11.5087 11.228 11.5087C12.035 11.5087 12.842 11.6842 13.5789 12.035C14.2806 12.3859 14.842 12.9122 15.228 13.5789C15.6491 14.3859 15.8596 15.2631 15.8245 16.1403V22.7719C15.8245 23.0175 15.9298 23.2982 16.1052 23.4736C16.2806 23.6491 16.5613 23.7543 16.807 23.7543C17.3333 23.7543 17.7543 23.3333 17.7894 22.807C17.7894 22.807 17.7894 22.807 17.7894 22.7719V16.1403C17.8245 14.9122 17.5438 13.6842 16.9473 12.5964C16.421 11.6491 15.6491 10.9122 14.7017 10.3859Z" fill="var(--fill-0, white)"/>
<path id="Vector_15" d="M94.4564 16.7017C93.509 16.2456 92.4915 15.9298 91.4388 15.7894C90.702 15.6842 89.9652 15.5087 89.2634 15.228C88.8423 15.0877 88.4564 14.807 88.1757 14.4561C87.6143 13.6842 87.8248 12.6315 88.5616 12.0701C88.5967 12.0351 88.6318 12 88.6669 12C89.3336 11.5789 90.1406 11.3684 90.9125 11.4386C91.5792 11.4386 92.2459 11.5438 92.8424 11.7894C93.4038 12.0351 93.9301 12.3859 94.316 12.8772C94.4915 13.0526 94.7371 13.1929 94.9827 13.228C95.2283 13.2631 95.4739 13.228 95.6845 13.1228C95.895 13.0175 96.0353 12.807 96.1055 12.5614C96.1406 12.3158 96.0704 12.0701 95.895 11.8596C95.3687 11.1929 94.6669 10.6315 93.895 10.2807C92.9827 9.85961 91.9652 9.68418 90.9476 9.68418C90.0704 9.68418 89.2283 9.82453 88.4213 10.1052C87.6845 10.3508 87.0529 10.807 86.5967 11.4035C86.1055 12.0351 85.8599 12.807 85.895 13.5789C85.895 14.5263 86.3511 15.4386 87.088 16C87.895 16.6666 89.1581 17.1579 90.8774 17.4386C92.2108 17.6491 93.1581 17.9649 93.7195 18.3859C94.2459 18.7017 94.5967 19.2982 94.5967 19.8947C94.5616 20.5263 94.2459 21.0877 93.7195 21.4737C93.1581 21.9298 92.2459 22.1403 90.9827 22.1403C90.2108 22.1403 89.4739 22.0351 88.7371 21.7544C88.1055 21.5438 87.5441 21.1579 87.1231 20.6666C86.7371 20.2456 86.1055 20.2105 85.6845 20.5965C85.509 20.7719 85.4038 20.9824 85.3687 21.228C85.3336 21.4737 85.4038 21.7544 85.5792 21.9298C86.2459 22.6315 87.0529 23.1579 87.9652 23.4737C88.9125 23.8245 89.9301 23.9649 90.9476 23.9649C91.9301 24 92.8774 23.8245 93.7897 23.4737C94.5616 23.193 95.2283 22.7017 95.7195 22.0701C96.1757 21.4737 96.4213 20.7368 96.4213 19.9649C96.4213 19.3333 96.2459 18.7368 95.9652 18.2105C95.6494 17.5087 95.1231 17.0175 94.4564 16.7017Z" fill="var(--fill-0, white)"/>
<path id="Vector_16" d="M80.1755 10.3859C79.1579 9.8596 78.0702 9.61399 76.9474 9.64907C75.8948 9.64907 74.8772 9.89469 73.9299 10.3859C73.2983 10.7017 72.772 11.1578 72.3158 11.6842V10.807C72.3158 10.5263 72.2457 10.2807 72.0351 10.0701C71.8597 9.89469 71.579 9.78942 71.3334 9.78942C70.8071 9.75434 70.386 10.1403 70.3509 10.6315C70.3509 10.6666 70.3509 10.7368 70.3509 10.7719V22.7719C70.3509 23.0175 70.4211 23.2982 70.6316 23.4736C70.8421 23.6491 71.0878 23.7543 71.3685 23.7543C71.8948 23.7894 72.3158 23.4035 72.3509 22.8771C72.3509 22.8421 72.3509 22.807 72.3509 22.7719V15.228C72.3509 14.5614 72.5614 13.8947 72.9474 13.3333C73.3685 12.7719 73.8948 12.3157 74.5264 12C76 11.3333 77.6492 11.3684 79.1228 12.035C79.7895 12.3859 80.386 12.9122 80.772 13.5438C81.193 14.3508 81.4035 15.228 81.3685 16.1403V22.7719C81.3685 23.0175 81.4737 23.2982 81.6492 23.4736C81.8246 23.6491 82.1053 23.7543 82.3509 23.7543C82.8772 23.7543 83.2983 23.3333 83.3334 22.807C83.3334 22.807 83.3334 22.807 83.3334 22.7719V16.1403C83.3685 14.9122 83.0878 13.6842 82.5264 12.5964C81.9299 11.6842 81.1228 10.9122 80.1755 10.3859Z" fill="var(--fill-0, white)"/>
<path id="Vector_17" d="M64.2109 10.5965C61.9302 9.36842 59.1934 9.36842 56.9127 10.5965C55.86 11.193 54.9828 12.0702 54.3863 13.1228C53.7548 14.2456 53.439 15.5088 53.4741 16.807C53.439 18.0702 53.7548 19.3333 54.3863 20.4561C54.9828 21.5088 55.86 22.386 56.9127 22.9825C59.1934 24.2105 61.9302 24.2105 64.2109 22.9825C65.2635 22.386 66.1407 21.5088 66.7372 20.4561C67.3688 19.3333 67.6846 18.0702 67.6495 16.807C67.6495 15.5088 67.3337 14.2456 66.7021 13.1228C66.1407 12.0702 65.2635 11.193 64.2109 10.5965ZM65.053 19.5088C64.632 20.2807 64.0004 20.9474 63.2284 21.4035C61.5793 22.3158 59.5793 22.3158 57.9302 21.4035C57.1583 20.9474 56.5267 20.3158 56.0706 19.5088C55.6144 18.6667 55.3688 17.7193 55.4039 16.7719C55.4039 15.8246 55.6144 14.8772 56.0706 14.0351C56.4916 13.2281 57.1583 12.5965 57.9302 12.1403C59.5793 11.2281 61.5793 11.2281 63.2284 12.1403C64.0004 12.5965 64.632 13.2632 65.053 14.0351C65.5091 14.8772 65.7197 15.8246 65.7197 16.7719C65.7548 17.7544 65.5442 18.6667 65.053 19.5088Z" fill="var(--fill-0, white)"/>
</g>
</svg>
